HIERARCHY
ROOT Hips
{
  OFFSET 263.056 91.6644 -274.608
  CHANNELS 6 Xposition Yposition Zposition Zrotation Xrotation Yrotation
  JOINT LeftUpLeg
  {
    OFFSET 8.64259 1.95398 -2.38835
    CHANNELS 3 Zrotation Xrotation Yrotation
    JOINT LeftLeg
    {
      OFFSET 43.7702 0 0
      CHANNELS 3 Zrotation Xrotation Yrotation
      JOINT LeftFoot
      {
        OFFSET 40.6238 0 0
        CHANNELS 3 Zrotation Xrotation Yrotation
        JOINT LeftToeBase
        {
          OFFSET 12.7242 0 0
          CHANNELS 3 Zrotation Xrotation Yrotation
          End Site
          {
            OFFSET 0 0 0
          }
        }
      }
    }
  }
  JOINT RightUpLeg
  {
    OFFSET -8.2249 1.95398 -2.59336
    CHANNELS 3 Zrotation Xrotation Yrotation
    JOINT RightLeg
    {
      OFFSET 43.5653 0 0
      CHANNELS 3 Zrotation Xrotation Yrotation
      JOINT RightFoot
      {
        OFFSET 40.6238 0 0
        CHANNELS 3 Zrotation Xrotation Yrotation
        JOINT RightToeBase
        {
          OFFSET 12.7242 0 0
          CHANNELS 3 Zrotation Xrotation Yrotation
          End Site
          {
            OFFSET 0 0 0
          }
        }
      }
    }
  }
  JOINT Spine
  {
    OFFSET 0.165834 0.87714 6.61349
    CHANNELS 3 Zrotation Xrotation Yrotation
    JOINT Spine1
    {
      OFFSET 7.38963 1.71661e-005 0
      CHANNELS 3 Zrotation Xrotation Yrotation
      JOINT Spine2
      {
        OFFSET 11.9445 1.14441e-005 0
        CHANNELS 3 Zrotation Xrotation Yrotation
        JOINT Spine3
        {
          OFFSET 14.7254 4.19617e-005 0
          CHANNELS 3 Zrotation Xrotation Yrotation
          JOINT Spine4
          {
            OFFSET 10.9679 0 0
            CHANNELS 3 Zrotation Xrotation Yrotation
            JOINT RightShoulder
            {
              OFFSET 2.46616 -1.6653 3.69651
              CHANNELS 3 Zrotation Xrotation Yrotation
              JOINT RightArm
              {
                OFFSET 13.0012 0 0
                CHANNELS 3 Zrotation Xrotation Yrotation
                JOINT RightForeArm
                {
                  OFFSET 28.7848 1.52588e-005 0
                  CHANNELS 3 Zrotation Xrotation Yrotation
                  JOINT RightHand
                  {
                    OFFSET 26.5688 1.52588e-005 0
                    CHANNELS 3 Zrotation Xrotation Yrotation
                    End Site
                    {
                      OFFSET 0 0 0
                    }
                  }
                }
              }
            }
            JOINT LeftShoulder
            {
              OFFSET 2.38034 -1.29275 -3.7523
              CHANNELS 3 Zrotation Xrotation Yrotation
              JOINT LeftArm
              {
                OFFSET 16.3182 6.10352e-005 0
                CHANNELS 3 Zrotation Xrotation Yrotation
                JOINT LeftForeArm
                {
                  OFFSET 27.0901 0 0
                  CHANNELS 3 Zrotation Xrotation Yrotation
                  JOINT LeftHand
                  {
                    OFFSET 24.5451 1.52588e-005 0
                    CHANNELS 3 Zrotation Xrotation Yrotation
                    End Site
                    {
                      OFFSET 0 0 0
                    }
                  }
                }
              }
            }
            JOINT Neck
            {
              OFFSET 5.0226 -0.0266342 0
              CHANNELS 3 Zrotation Xrotation Yrotation
              JOINT Head
              {
                OFFSET 6.69364 2.86102e-005 0
                CHANNELS 3 Zrotation Xrotation Yrotation
                End Site
                {
                  OFFSET 0 0 0
                }
              }
            }
          }
        }
      }
    }
  }
}
MOTION
Frames:	14
Frame Time:	0.0416667
-33.9223 10.0043 10.5982 3.17408 -2.28245 77.0122 -175.889 7.56662 88.4247 -21.7005 30.943 -0.25783 54.6173 -2.21436 5.3021 89.9985 61.3961 -3.20632 -179.24 9.67243 89.8293 -30.3351 -11.7329 -5.91148 60.265 0.419932 0.384238 59.8 8.81739 31.2181 1.87488 6.64369 -92.3446 13.6228 2.58035 -5.034 1.94428 2.35663 -5.14234 -20.5566 3.97284 -4.02796 -0.543974 3.97287 -4.02797 98.9276 -26.553 -89.1109 -63.3264 41.3478 81.437 -16.0533 -6.4107 -147.986 -41.2263 -2.46515 4.52543 -146.561 -38.2158 -3.17793 128.983 4.8913 121.569 15.3863 51.277 -166.267 47.7402 5.55701 7.67459 30.1181 -18.6576 48.1584 -2.75614 -36.5398 -34.1037 
-33.9283 9.99806 10.6095 3.20791 -2.21615 77.1262 -175.827 7.69252 88.5747 -21.9209 30.7816 -0.236303 54.6634 -2.33546 4.91904 91.5119 61.82 -4.47724 -179.295 9.54529 89.8694 -30.029 -11.8367 -5.76128 60.1378 0.436705 0.393387 58.9392 8.72463 32.1708 1.87797 6.641 -92.3523 13.6237 2.58268 -5.04895 1.94506 2.35827 -5.1574 -20.5552 3.97957 -4.04156 -0.542555 3.97956 -4.04157 98.9459 -26.7665 -89.0452 -64.048 41.3526 81.5399 -16.6763 -6.48409 -147.619 -41.5453 -2.37384 4.18708 -146.556 -38.1389 -3.22975 128.96 4.91902 121.409 15.4037 51.2853 -166.253 47.1027 5.35947 7.42946 30.4669 -18.9963 48.2693 -3.64293 -36.778 -34.1657 
-33.9549 10.0165 10.6284 3.27274 -2.18815 77.0839 -175.868 7.55871 88.5623 -21.7363 30.8353 -0.209908 54.3594 -2.55604 4.95999 90.2775 61.6346 -3.23839 -179.384 9.56704 89.8049 -30.1022 -11.5727 -5.73112 59.7217 0.624501 0.525909 59.8944 9.21964 32.7574 1.87806 6.64299 -92.3466 13.6235 2.58575 -5.03781 1.94492 2.36182 -5.14638 -20.556 3.97914 -4.03 -0.543392 3.97915 -4.02999 98.8845 -26.6415 -89.1932 -62.5441 40.9332 80.2249 -17.9019 -7.1519 -147.459 -45.6751 -2.89146 5.00322 -146.46 -38.1388 -3.12851 127.993 4.05515 121.248 15.521 50.4975 -166.197 48.6506 5.3365 6.97186 30.5269 -18.9233 48.8157 -6.5923 -36.2406 -35.0188 
-33.9872 10.0379 10.6258 3.42232 -2.13593 77.1261 -175.887 7.55097 88.617 -21.943 30.6405 -0.144677 54.4203 -2.6036 4.64217 91.2095 62.214 -3.60958 -179.296 9.3894 89.8836 -30.0819 -11.5409 -5.78066 59.9539 0.498964 0.438697 59.2595 8.95528 32.6468 1.87133 6.6473 -92.3608 13.6161 2.56571 -5.06299 1.93741 2.3407 -5.17069 -20.5628 3.96759 -4.06007 -0.550183 3.96759 -4.06009 98.9383 -26.2477 -89.1253 -62.1756 40.7449 80.1583 -16.9725 -7.50851 -147.387 -42.1899 -3.14105 6.3219 -146.514 -38.1043 -3.21071 128.369 4.52845 121.165 15.3246 51.1526 -166.155 48.1912 5.36108 7.14148 31.1719 -19.3106 48.9048 -8.20507 -36.4404 -35.0909 
-33.9698 10.0173 10.6373 3.37449 -2.0924 77.1737 -175.891 7.61815 88.6818 -21.9743 30.6292 -0.118528 54.5485 -2.59788 4.24313 92.5893 62.5149 -4.86013 -179.261 9.47793 89.9485 -30.0961 -11.5688 -5.78545 59.7967 0.571718 0.489743 59.1066 8.75708 32.0435 1.87063 6.6185 -92.3605 13.6734 2.5629 -5.06505 1.99466 2.33783 -5.1726 -20.5054 3.96555 -4.06289 -0.49274 3.96553 -4.06288 99.1495 -25.7866 -88.7189 -59.7634 40.6388 79.8104 -17.539 -5.71196 -148.214 -45.604 -2.83454 4.9012 -146.566 -38.0159 -3.33148 128.518 4.73113 120.984 15.7386 50.6349 -166.35 48.4337 5.30215 6.95605 30.2717 -20.8029 48.6312 -8.21638 -37.2759 -34.7554 
-33.9925 10.013 10.6625 3.34408 -2.08791 77.1039 -175.983 7.68452 88.5995 -22.1505 30.7243 -0.0935154 54.9801 -2.05142 4.69042 87.2525 62.7641 1.9128 -179.263 9.5886 89.9109 -30.2515 -11.4551 -5.86131 59.5699 0.692529 0.576513 60.0004 9.01978 31.7622 1.87163 6.61266 -92.3536 13.6851 2.56804 -5.05238 2.00642 2.3435 -5.16016 -20.4941 3.96662 -4.04926 -0.481416 3.96661 -4.04924 99.3907 -26.2376 -88.0727 -59.1529 40.9206 79.3868 -17.8451 -4.7178 -148.722 -44.4332 -2.9462 5.507 -146.5 -38.0971 -3.20197 128.062 4.26738 121.115 15.407 50.7438 -166.2 48.0318 5.12226 6.67945 29.6343 -21.5398 48.0663 -7.93075 -37.5269 -34.4113 
-33.9805 10.0305 10.6633 3.41492 -2.15685 77.1222 -175.934 7.73686 88.6264 -22.4522 30.7518 -0.104311 54.6071 -2.38352 4.87249 90.3176 62.1848 -2.58023 -179.188 9.4123 89.9264 -30.0643 -11.5086 -5.89212 59.6931 0.597961 0.509879 59.7427 9.15009 32.7213 1.87255 6.62752 -92.3569 13.6553 2.569 -5.05772 1.97666 2.34421 -5.16554 -20.5237 3.96914 -4.05405 -0.511081 3.96914 -4.05406 101.383 -21.9731 -83.9855 -37.684 42.2776 65.7433 -20.6961 6.51317 -148.214 -42.9799 -3.70516 8.01827 -146.624 -38.0412 -3.37314 129.057 5.16881 121.42 15.5698 51.3347 -166.404 48.0488 5.13233 6.69611 29.3906 -21.9247 49.0287 -9.31302 -37.7642 -35.8302 
-33.9881 10.0324 10.6479 3.40043 -2.12676 77.181 -175.961 7.74849 88.7082 -22.4078 30.7014 -0.039511 54.6615 -2.5333 4.22864 89.9813 62.0965 -2.28343 -179.215 9.35582 89.9227 -29.9963 -11.7129 -5.84681 59.8571 0.528688 0.459991 59.7465 9.09971 32.4988 1.84919 6.63596 -92.3611 13.6373 2.52107 -5.05911 1.95848 2.29628 -5.16482 -20.5408 3.92383 -4.06981 -0.528123 3.92384 -4.06981 100.96 -23.1486 -84.8758 -43.4839 43.1871 69.5385 -19.8377 2.93637 -148.433 -44.9321 -3.22983 6.1749 -146.693 -38.0769 -3.41915 129.111 5.24558 121.65 15.2589 52.0327 -166.303 48.184 4.99711 6.37842 29.0914 -22.1556 49.377 -9.52626 -37.9082 -36.6211 
-34.0152 10.0355 10.6523 3.40084 -2.08242 77.1389 -176.02 7.86238 88.6825 -22.5894 31.1256 -0.0416331 54.651 -2.46745 4.53347 89.0912 62.6488 -0.493979 -179.133 9.36214 89.922 -30.0437 -11.6924 -5.94296 59.9295 0.499029 0.439822 60.2802 9.10528 31.6963 1.83541 6.65972 -92.354 13.5889 2.49859 -5.03968 1.91017 2.27468 -5.14442 -20.5891 3.89655 -4.05799 -0.576402 3.89656 -4.058 101.024 -23.5588 -84.7088 -45.5162 44.2869 70.9026 -17.7634 -0.774748 -149.486 -44.0488 -3.50828 7.02269 -146.793 -38.0577 -3.53878 130.075 5.99833 121.997 15.6754 52.103 -166.667 47.8782 4.9381 6.32775 28.5612 -22.5592 49.1266 -8.6215 -38.1945 -36.6081 
-33.9513 10.0187 10.6518 3.33362 -2.00765 77.1752 -176.161 7.81161 88.6685 -22.3885 31.3414 0.0908114 54.4397 -2.64337 4.56213 88.6935 61.7691 -1.13256 -179.118 9.43437 89.9519 -29.9469 -11.5215 -5.9284 59.5995 0.618388 0.5246 60.321 9.18864 31.9748 1.91539 6.55067 -92.4643 13.8104 2.59761 -5.28401 2.13093 2.36288 -5.39281 -20.3643 4.06426 -4.26162 -0.351606 4.06425 -4.26162 100.892 -21.3774 -85.1325 -44.9085 43.0522 72.1946 -18.5296 0.694286 -149.585 -43.462 -3.22848 6.44133 -147.658 -36.876 -5.31991 130.403 7.96201 122.222 15.8688 53.5176 -166.976 47.6712 4.74389 5.96496 26.0814 -23.9858 52.7487 -9.88641 -39.348 -41.1008 
-33.9567 10.0287 10.6793 3.33809 -2.17262 77.1352 -176.068 7.72337 88.6835 -22.3095 31.5614 -0.0014466 54.5195 -2.48436 4.91648 87.9391 60.9935 -1.20556 -179.096 9.48324 89.9512 -30.1219 -11.7158 -5.99559 59.7211 0.597382 0.509036 59.8143 8.88833 31.4986 2.01 6.54122 -92.5618 13.833 2.7372 -5.49893 2.15286 2.49291 -5.61363 -20.3398 4.26182 -4.42499 -0.327147 4.26182 -4.42498 101.089 -19.5882 -84.7768 -44.622 42.9373 72.9673 -18.6476 0.498824 -149.592 -42.5059 -3.14156 6.40324 -148.245 -36.1718 -6.4564 130.812 9.00785 122.997 16.1128 54.2103 -167.281 47.7424 4.63156 5.70976 26.0768 -23.7391 56.2868 -12.7694 -39.4359 -44.7982 
-33.9498 10.0247 10.5211 3.30627 -2.02955 77.0643 -176.263 7.82101 88.4763 -22.4026 31.2427 0.107211 54.3552 -2.66489 4.66439 90.1269 61.5668 -3.14077 -179.255 9.5285 89.7193 -30.0924 -11.8114 -5.91501 59.8252 0.563424 0.484553 59.8541 9.07366 32.2192 2.00546 6.55753 -92.6022 13.7999 2.70942 -5.57457 2.11936 2.46184 -5.68797 -20.3705 4.25799 -4.50562 -0.35791 4.25799 -4.50562 101.146 -19.0626 -84.6615 -45.1606 43.3876 73.5593 -18.3057 -0.190013 -149.675 -41.737 -3.04468 6.26548 -148.473 -36.0092 -6.81094 130.929 9.24782 123.896 15.8385 54.9788 -167.166 46.9053 4.40129 5.40302 26.6093 -23.0983 57.8522 -14.5122 -39.0372 -46.3164 
-33.9398 10.0241 10.4656 3.34328 -1.92367 77.0677 -176.337 7.85869 88.4322 -22.5256 31.1938 0.175919 54.5643 -2.53861 4.54169 88.8166 62.4972 -0.351294 -179.352 9.39749 89.6265 -29.9056 -11.9331 -5.83112 59.8946 0.519592 0.453728 60.0522 9.22533 32.5466 1.9745 6.5466 -92.5486 13.8206 2.67354 -5.46346 2.14043 2.43088 -5.57539 -20.3517 4.19047 -4.41023 -0.339041 4.19047 -4.41024 101.129 -20.2776 -84.6348 -47.0793 43.5846 74.4056 -18.961 -0.453586 -149.626 -43.6089 -2.92189 5.57855 -148.192 -36.2822 -6.31788 131.377 9.58538 123.868 16.2475 54.5785 -167.393 46.193 4.32967 5.40815 26.0019 -23.7451 55.6634 -12.7557 -39.1768 -44.6782 
-33.9406 10.0405 10.4776 3.34099 -2.02365 77.0325 -176.263 7.80487 88.4392 -22.4223 31.3078 0.103619 54.5246 -2.52414 4.74747 90.6088 62.5646 -2.43816 -179.324 9.49463 89.6132 -30.0056 -11.9383 -5.88634 59.4418 0.700901 0.580816 60.6083 9.2354 31.7438 1.99204 6.56118 -92.5646 13.7923 2.70129 -5.49788 2.11208 2.45711 -5.611 -20.3798 4.22726 -4.43476 -0.367121 4.22727 -4.43478 101.264 -19.7273 -84.3362 -45.3142 43.6189 73.226 -18.7051 0.00459778 -149.461 -41.8619 -2.98711 6.08153 -148.152 -36.3786 -6.20486 130.821 9.12581 124.396 16.113 54.3617 -167.259 46.2506 4.29024 5.30825 26.2233 -23.5507 56.4233 -13.0387 -39.2605 -45.3238 
